<svg xmlns="http://www.w3.org/2000/svg" viewBox="0 0 32 32" width="32" height="32">
  <!-- Hub -->
  <circle cx="16" cy="12" r="2.5" fill="#27AE60"/>
  <!-- Blade 1 - up -->
  <path d="M16 12 C15.2 9, 15 5, 15.5 2 C15.8 1, 16.2 1, 16.5 2 C17 5, 16.8 9, 16 12" fill="#27AE60"/>
  <!-- Blade 2 - bottom right -->
  <path d="M16 12 C18 14, 21 17, 23 19.5 C23.5 20, 23 20.5, 22.5 20 C20 18, 17.5 15, 16 12" fill="#27AE60"/>
  <!-- Blade 3 - bottom left -->
  <path d="M16 12 C14 14, 11 17, 9 19.5 C8.5 20, 9 20.5, 9.5 20 C12 18, 14.5 15, 16 12" fill="#27AE60"/>
  <!-- Tower -->
  <rect x="15" y="14" width="2" height="14" rx="1" fill="#27AE60"/>
  <!-- Base -->
  <rect x="12" y="28" width="8" height="2" rx="1" fill="#27AE60"/>
</svg>
