<svg xmlns="http://www.w3.org/2000/svg" width="400" height="300" viewBox="0 0 400 300">
  <defs>
    <linearGradient id="bg-vx" x1="0%" y1="0%" x2="0%" y2="100%">
      <stop offset="0%" style="stop-color:#90CAF9"/>
      <stop offset="100%" style="stop-color:#E3F2FD"/>
    </linearGradient>
  </defs>
  <rect width="400" height="300" fill="url(#bg-vx)"/>
  <!-- Blade surface -->
  <rect x="80" y="20" width="240" height="260" fill="#F0F0F0" rx="3"/>
  <!-- VG panel positions - some present, some missing -->
  <rect x="120" y="40" width="18" height="5" fill="#333" rx="1"/>
  <rect x="120" y="65" width="18" height="5" fill="#333" rx="1"/>
  <!-- Missing VG - gap with adhesive residue -->
  <rect x="120" y="90" width="18" height="5" fill="none" stroke="#999" stroke-width="1" stroke-dasharray="2,2"/>
  <ellipse cx="129" cy="92" rx="6" ry="2" fill="#B8860B" opacity="0.4"/>
  <!-- Missing VG -->
  <rect x="120" y="115" width="18" height="5" fill="none" stroke="#999" stroke-width="1" stroke-dasharray="2,2"/>
  <ellipse cx="129" cy="117" rx="5" ry="2" fill="#B8860B" opacity="0.3"/>
  <!-- Missing VG -->
  <rect x="120" y="140" width="18" height="5" fill="none" stroke="#999" stroke-width="1" stroke-dasharray="2,2"/>
  <!-- Present VG -->
  <rect x="120" y="165" width="18" height="5" fill="#333" rx="1"/>
  <!-- Missing VG -->
  <rect x="120" y="190" width="18" height="5" fill="none" stroke="#999" stroke-width="1" stroke-dasharray="2,2"/>
  <ellipse cx="129" cy="192" rx="7" ry="2" fill="#B8860B" opacity="0.35"/>
  <!-- Present VG -->
  <rect x="120" y="215" width="18" height="5" fill="#333" rx="1"/>
  <rect x="120" y="240" width="18" height="5" fill="#333" rx="1"/>
  <!-- Red indicators for missing -->
  <circle cx="155" cy="92" r="4" fill="none" stroke="#FF0000" stroke-width="1.5"/>
  <circle cx="155" cy="117" r="4" fill="none" stroke="#FF0000" stroke-width="1.5"/>
  <circle cx="155" cy="142" r="4" fill="none" stroke="#FF0000" stroke-width="1.5"/>
  <circle cx="155" cy="192" r="4" fill="none" stroke="#FF0000" stroke-width="1.5"/>
  <!-- Legend -->
  <rect x="230" y="50" width="12" height="4" fill="#333" rx="1"/>
  <text x="248" y="55" font-size="8" fill="#555" font-family="sans-serif">Present</text>
  <rect x="230" y="68" width="12" height="4" fill="none" stroke="#999" stroke-width="1" stroke-dasharray="2,1"/>
  <text x="248" y="73" font-size="8" fill="#555" font-family="sans-serif">Missing</text>
  <!-- Label -->
  <text x="200" y="285" text-anchor="middle" font-size="10" fill="#333" font-family="sans-serif">Close-up - Vortex generators missing</text>
</svg>
